<svg width="36" height="19" viewBox="0 0 36 19" fill="none" xmlns="http://www.w3.org/2000/svg">
<path d="M13.575 7.6422C11.0006 10.2578 8.24998 13.1217 5.59205 15.6206C5.12294 16.0622 4.36435 16.8242 3.77738 17.0084C1.05996 17.8609 -1.18149 14.64 0.689244 12.4329L12.6608 0.492221C15.3359 -1.22519 18.4275 1.90299 16.6402 4.47168C16.0533 5.31494 14.3828 6.82182 13.5761 7.6422H13.575Z" fill="url(#paint0_linear_16129_5674)"/>
<path d="M24.157 8.70177C21.5826 11.3174 18.832 14.1812 16.1741 16.6801C15.705 17.1218 14.9464 17.8838 14.3594 18.068C11.642 18.9204 9.40054 15.6996 11.2713 13.4924L23.2428 1.55179C25.9179 -0.165622 29.0095 2.96256 27.2223 5.53125C26.6353 6.37451 24.9648 7.88139 24.1582 8.70177H24.157Z" fill="url(#paint1_linear_16129_5674)"/>
<path d="M27.9588 8.08281C30.777 7.60226 32.5104 10.5588 30.7953 12.7499C30.2667 13.425 27.8421 15.8781 27.1808 16.3438C24.4508 18.2672 21.0549 14.9319 23.3535 12.0588C23.9611 11.2991 25.9725 9.26246 26.7277 8.68236C27.0298 8.45009 27.5881 8.14574 27.9588 8.08281Z" fill="url(#paint2_linear_16129_5674)"/>
<circle cx="33.3119" cy="6.03672" r="2.68882" fill="url(#paint3_linear_16129_5674)"/>
<defs>
<linearGradient id="paint0_linear_16129_5674" x1="0" y1="8.57436" x2="17.1699" y2="8.57436" gradientUnits="userSpaceOnUse">
<stop stop-color="#0F5FDC"/>
<stop offset="1" stop-color="#4B91FF"/>
</linearGradient>
<linearGradient id="paint1_linear_16129_5674" x1="10.582" y1="9.63393" x2="27.752" y2="9.63393" gradientUnits="userSpaceOnUse">
<stop stop-color="#0F5FDC"/>
<stop offset="1" stop-color="#4B91FF"/>
</linearGradient>
<linearGradient id="paint2_linear_16129_5674" x1="22.5938" y1="12.4719" x2="31.477" y2="12.4719" gradientUnits="userSpaceOnUse">
<stop stop-color="#0F5FDC"/>
<stop offset="1" stop-color="#4B91FF"/>
</linearGradient>
<linearGradient id="paint3_linear_16129_5674" x1="30.623" y1="6.03672" x2="36.0007" y2="6.03672" gradientUnits="userSpaceOnUse">
<stop stop-color="#F26725"/>
<stop offset="1" stop-color="#F7961E"/>
</linearGradient>
</defs>
</svg>
